<?xml version="1.0" encoding="UTF-8"?>
<svg width="100px" height="100px" viewBox="0 0 100 100" version="1.1" xmlns="http://www.w3.org/2000/svg" xmlns:xlink="http://www.w3.org/1999/xlink">
    <!-- Generator: Sketch 44.1 (41455) - http://www.bohemiancoding.com/sketch -->
    <title>Page 1</title>
    <desc>Created with Sketch.</desc>
    <defs></defs>
    <g id="Page-1" stroke="none" stroke-width="1" fill="none" fill-rule="evenodd">
        <g fill="#000000">
            <g id="Group-3" transform="translate(0.000000, 0.166535)">
                <path d="M49.9842262,0.0315049505 C36.4094246,0.0315049505 34.7070437,0.0889306931 29.3758929,0.33170297 C24.0554563,0.573881188 20.422123,1.41724752 17.2425595,2.65051485 C13.9558532,3.92516832 11.1681548,5.63091089 8.38938492,8.40417822 C5.61041667,11.1776436 3.9014881,13.9596238 2.62410714,17.2398218 C1.38839286,20.4130891 0.543551587,24.0392277 0.300694444,29.3491287 C0.0574404762,34.6699208 9.92063492e-05,36.3685347 9.92063492e-05,49.9166535 C9.92063492e-05,63.4647723 0.0574404762,65.1635842 0.300694444,70.4843762 C0.543551587,75.7940792 1.38839286,79.4204158 2.62410714,82.5934851 C3.9014881,85.8736832 5.61041667,88.6558614 8.38938492,91.4291287 C11.1681548,94.2025941 13.9558532,95.9081386 17.2425595,97.1831881 C20.422123,98.4162574 24.0554563,99.2596238 29.3758929,99.502 C34.7070437,99.7445743 36.4094246,99.802 49.9842262,99.802 C63.5592262,99.802 65.2612103,99.7445743 70.5925595,99.502 C75.912996,99.2596238 79.5463294,98.4162574 82.7258929,97.1831881 C86.0127976,95.9081386 88.8002976,94.2025941 91.5790675,91.4291287 C94.3580357,88.6558614 96.0669643,85.8738812 97.3443452,82.5934851 C98.5800595,79.4204158 99.4250992,75.7940792 99.6677579,70.4843762 C99.9110119,65.1635842 99.9685516,63.4647723 99.9685516,49.9166535 C99.9685516,36.3687327 99.9110119,34.6699208 99.6677579,29.3491287 C99.4250992,24.0392277 98.5800595,20.4130891 97.3443452,17.2398218 C96.0669643,13.9596238 94.3580357,11.1776436 91.5790675,8.40417822 C88.8002976,5.63091089 86.0127976,3.92516832 82.7258929,2.65051485 C79.5463294,1.41724752 75.912996,0.573881188 70.5925595,0.33170297 C65.2612103,0.0889306931 63.5592262,0.0315049505 49.9842262,0.0315049505 M49.9842262,9.01982178 C63.3306548,9.01982178 64.9114087,9.07051485 70.1820437,9.31051485 C75.0554563,9.53249505 77.7020833,10.3451683 79.4633929,11.0283366 C81.7965278,11.9332871 83.4618056,13.0142772 85.2108135,14.7598218 C86.9598214,16.5055644 88.0429563,18.1673465 88.9499008,20.4958614 C89.6342262,22.2536832 90.4485119,24.8950693 90.6709325,29.7588317 C90.9112103,35.0190297 90.9622024,36.5968515 90.9622024,49.9166535 C90.9622024,63.2366535 90.9112103,64.8144752 90.6709325,70.0744752 C90.4485119,74.9384356 89.6342262,77.5798218 88.9499008,79.3376436 C88.0429563,81.6659604 86.9598214,83.3279406 85.2108135,85.0734851 C83.4618056,86.8192277 81.7965278,87.9002178 79.4633929,88.8051683 C77.7020833,89.4881386 75.0554563,90.3010099 70.1820437,90.5227921 C64.9122024,90.7627921 63.3316468,90.8136832 49.9842262,90.8136832 C36.6368056,90.8136832 35.05625,90.7627921 29.7864087,90.5227921 C24.912996,90.3010099 22.2661706,89.4881386 20.5048611,88.8051683 C18.1719246,87.9002178 16.5066468,86.8192277 14.7576389,85.0734851 C13.008631,83.3279406 11.9252976,81.6659604 11.0185516,79.3376436 C10.3342262,77.5798218 9.51994048,74.9384356 9.29751984,70.0746733 C9.05704365,64.8144752 9.00625,63.2366535 9.00625,49.9166535 C9.00625,36.5968515 9.05704365,35.0190297 9.29751984,29.7588317 C9.51994048,24.8950693 10.3342262,22.2536832 11.0185516,20.4958614 C11.9252976,18.1673465 13.008631,16.5055644 14.7576389,14.7600198 C16.5066468,13.0142772 18.1719246,11.9332871 20.5048611,11.0283366 C22.2661706,10.3451683 24.912996,9.53249505 29.7862103,9.31051485 C35.0570437,9.07051485 36.6377976,9.01982178 49.9842262,9.01982178" id="Fill-1"></path>
            </g>
            <path d="M49.9842262,66.711703 C40.7824405,66.711703 33.3227183,59.2667525 33.3227183,50.0831881 C33.3227183,40.8996238 40.7824405,33.4548713 49.9842262,33.4548713 C59.1860119,33.4548713 66.6457341,40.8996238 66.6457341,50.0831881 C66.6457341,59.2667525 59.1860119,66.711703 49.9842262,66.711703 M49.9842262,24.4665545 C35.8084325,24.4665545 24.3165675,35.9354653 24.3165675,50.0831881 C24.3165675,64.2311089 35.8084325,75.7000198 49.9842262,75.7000198 C64.1600198,75.7000198 75.6516865,64.2311089 75.6516865,50.0831881 C75.6516865,35.9354653 64.1600198,24.4665545 49.9842262,24.4665545" id="Fill-4"></path>
            <path d="M82.6640079,23.4544356 C82.6640079,26.7605743 79.9786905,29.4405743 76.6659921,29.4405743 C73.3532937,29.4405743 70.6677778,26.7605743 70.6677778,23.4544356 C70.6677778,20.148297 73.3532937,17.468297 76.6659921,17.468297 C79.9786905,17.468297 82.6640079,20.148297 82.6640079,23.4544356" id="Fill-6"></path>
        </g>
    </g>
</svg>